# xmcd
#
# Track frame offsets: 
#        150
#        45557
#        69960
#        86400
#        106505
#        109020
#        126165
#        141642
#        143780
#        167892
#        170355
#
# Disc length: 2465 seconds
#
# Revision: 1
# Processed by: cddbd v1.5.2PL0 Copyright (c) Steve Scherf et al.
# Submitted via: ExactAudioCopy v1.0b1
#
DISCID=91099f0b
DTITLE=Harriet Tubman - I Am A Man
DYEAR=1998
DGENRE=Jazz
TTITLE0=Savannah
TTITLE1=Where We Stand
TTITLE2=Hards Dry
TTITLE3=Adapted
TTITLE4=Take Out
TTITLE5=High Black Skin
TTITLE6=Asiatic Research
TTITLE7=Moly
TTITLE8=Frozen Fire
TTITLE9=Irridescent Shark-Skin Suit
TTITLE10=2 Man Army
EXTD=YEAR: 1998
EXTT0=
EXTT1=
EXTT2=
EXTT3=
EXTT4=
EXTT5=
EXTT6=
EXTT7=
EXTT8=
EXTT9=
EXTT10=
PLAYORDER=
